<svg width="255" height="60" viewBox="0 0 255 60" fill="none" xmlns="http://www.w3.org/2000/svg">
<path d="M0.445312 60V1.26562H12.2578V60H0.445312ZM21.9539 49.1719V44.9883C22.0086 41.4883 23.4852 38.7812 26.3836 36.8672C27.0945 36.4844 29.9656 35.418 34.9969 33.668C40.8484 31.6992 43.7742 29.9492 43.7742 28.418V26.5312C43.7195 24.5625 42.5164 23.4961 40.1648 23.332V13.2422C44.2664 13.2422 47.7117 14.6367 50.5008 17.4258C53.0164 19.9961 54.2742 22.7852 54.2742 25.793V47.2031C54.3289 48.8438 55.0945 49.7188 56.5711 49.8281V60C53.2352 60 50.5555 59.125 48.532 57.375C46.3992 59.0703 43.6375 59.9453 40.2469 60V49.9102C40.6844 49.9102 41.0945 49.8555 41.4773 49.7461C43.0086 49.3086 43.7742 48.2695 43.7742 46.6289V39.9023C42.2977 40.7773 39.4266 41.8164 35.1609 43.0195C33.4109 43.457 32.3992 43.7578 32.1258 43.9219C31.4695 44.25 31.1141 44.8789 31.0594 45.8086V46.957C31.0594 47.2852 31.0867 47.6133 31.1414 47.9414C31.4695 49.2539 33.0281 49.9102 35.8172 49.9102V60C32.1531 60 29.0359 59.0703 26.4656 57.2109C23.4578 55.0234 21.9539 52.3438 21.9539 49.1719ZM22.5281 24.9727C22.5828 22.1836 23.7313 19.6406 25.9734 17.3438C28.8172 14.6094 32.1258 13.2422 35.8992 13.2422V23.332C33.3836 23.3867 32.0984 25.1367 32.0438 28.582L22.5281 24.9727ZM66.2672 60V1.26562H77.5875V60H66.2672ZM81.9352 60V49.3359H84.8883C85.2164 49.3359 85.5172 49.3086 85.7906 49.2539C86.1188 49.1445 86.3922 49.0352 86.6109 48.9258C86.8297 48.8164 87.0211 48.6797 87.1852 48.5156C87.3492 48.3516 87.4586 48.1875 87.5133 48.0234C87.6227 47.8594 87.7047 47.7227 87.7594 47.6133C87.8141 47.4492 87.8688 47.3125 87.9234 47.2031V47.1211V26.1211C87.9234 25.4648 87.5133 24.8906 86.693 24.3984C86.2008 24.125 85.6266 23.9609 84.9703 23.9062H81.9352V13.2422H84.8883C89.8102 13.2422 93.6656 15.4023 96.4547 19.7227C97.8219 21.8555 98.5328 23.8789 98.5875 25.793V47.2852C98.5875 49.7461 97.5211 52.2891 95.3883 54.9141C92.5992 58.25 89.0992 59.9453 84.8883 60H81.9352ZM108.694 60V1.26562H120.014V60H108.694ZM124.362 60V49.3359H127.315C127.643 49.3359 127.944 49.3086 128.217 49.2539C128.545 49.1445 128.819 49.0352 129.037 48.9258C129.256 48.8164 129.448 48.6797 129.612 48.5156C129.776 48.3516 129.885 48.1875 129.94 48.0234C130.049 47.8594 130.131 47.7227 130.186 47.6133C130.241 47.4492 130.295 47.3125 130.35 47.2031V47.1211V26.1211C130.35 25.4648 129.94 24.8906 129.12 24.3984C128.627 24.125 128.053 23.9609 127.397 23.9062H124.362V13.2422H127.315C132.237 13.2422 136.092 15.4023 138.881 19.7227C140.248 21.8555 140.959 23.8789 141.014 25.793V47.2852C141.014 49.7461 139.948 52.2891 137.815 54.9141C135.026 58.25 131.526 59.9453 127.315 60H124.362ZM149.726 49.1719V44.9883C149.78 41.4883 151.257 38.7812 154.155 36.8672C154.866 36.4844 157.738 35.418 162.769 33.668C168.62 31.6992 171.546 29.9492 171.546 28.418V26.5312C171.491 24.5625 170.288 23.4961 167.937 23.332V13.2422C172.038 13.2422 175.484 14.6367 178.273 17.4258C180.788 19.9961 182.046 22.7852 182.046 25.793V47.2031C182.101 48.8438 182.866 49.7188 184.343 49.8281V60C181.007 60 178.327 59.125 176.304 57.375C174.171 59.0703 171.409 59.9453 168.019 60V49.9102C168.456 49.9102 168.866 49.8555 169.249 49.7461C170.78 49.3086 171.546 48.2695 171.546 46.6289V39.9023C170.07 40.7773 167.198 41.8164 162.933 43.0195C161.183 43.457 160.171 43.7578 159.898 43.9219C159.241 44.25 158.886 44.8789 158.831 45.8086V46.957C158.831 47.2852 158.859 47.6133 158.913 47.9414C159.241 49.2539 160.8 49.9102 163.589 49.9102V60C159.925 60 156.808 59.0703 154.238 57.2109C151.23 55.0234 149.726 52.3438 149.726 49.1719ZM150.3 24.9727C150.355 22.1836 151.503 19.6406 153.745 17.3438C156.589 14.6094 159.898 13.2422 163.671 13.2422V23.332C161.155 23.3867 159.87 25.1367 159.816 28.582L150.3 24.9727ZM194.695 6.59766C194.695 4.35547 195.707 2.66016 197.73 1.51172C198.66 0.964844 199.645 0.691406 200.684 0.691406C202.98 0.691406 204.703 1.70313 205.852 3.72656C206.344 4.65625 206.59 5.61328 206.59 6.59766C206.59 8.89453 205.578 10.6172 203.555 11.7656C202.625 12.2578 201.668 12.5039 200.684 12.5039C198.332 12.5039 196.582 11.4648 195.434 9.38672C194.941 8.51172 194.695 7.58203 194.695 6.59766ZM195.27 60V15.7031H206.262V60H195.27ZM218.337 60V1.26562H229.657V60H218.337ZM232.036 36.457L242.126 13.2422H254.102L243.766 36.457L254.266 60H242.372L232.036 36.457Z" fill="white"/>
</svg>
