<svg width="16" height="17" viewBox="0 0 16 17" fill="none" xmlns="http://www.w3.org/2000/svg">
<circle cx="8" cy="8.5" r="8" fill="#FA9924"/>
<path d="M13 7.55003C13.05 7.30003 12.85 7.00003 12.6 7.00003L9.75 6.60003L8.45 4.00003C8.4 3.90003 8.35 3.85003 8.25 3.80003C8 3.65003 7.7 3.75003 7.55 4.00003L6.3 6.60003L3.45 7.00003C3.3 7.00003 3.2 7.05003 3.15 7.15003C2.95 7.35003 2.95 7.65003 3.15 7.85003L5.2 9.85003L4.7 12.7C4.7 12.8 4.7 12.9 4.75 13C4.9 13.25 5.2 13.35 5.45 13.2L8 11.85L10.55 13.2C10.6 13.25 10.7 13.25 10.8 13.25H10.9C11.15 13.2 11.35 12.95 11.3 12.65L10.8 9.80003L12.85 7.80003C12.95 7.75003 13 7.65003 13 7.55003Z" fill="white"/>
</svg>
