<svg width="10" height="10" viewBox="0 0 10 10" fill="none" xmlns="http://www.w3.org/2000/svg">
<circle cx="5.00012" cy="5" r="5" fill="#FEC923"/>
<g clip-path="url(#clip0_36_5005)">
<path d="M8.12512 4.40562C8.15637 4.24937 8.03137 4.06187 7.87512 4.06187L6.09387 3.81187L5.28137 2.18687C5.25012 2.12437 5.21887 2.09312 5.15637 2.06187C5.00012 1.96812 4.81262 2.03062 4.71887 2.18687L3.93762 3.81187L2.15637 4.06187C2.06262 4.06187 2.00012 4.09312 1.96887 4.15562C1.84387 4.28062 1.84387 4.46812 1.96887 4.59312L3.25012 5.84312L2.93762 7.62437C2.93762 7.68687 2.93762 7.74937 2.96887 7.81187C3.06262 7.96812 3.25012 8.03062 3.40637 7.93687L5.00012 7.09312L6.59387 7.93687C6.62512 7.96812 6.68762 7.96812 6.75012 7.96812H6.81262C6.96887 7.93687 7.09387 7.78062 7.06262 7.59312L6.75012 5.81187L8.03137 4.56187C8.09387 4.53062 8.12512 4.46812 8.12512 4.40562Z" fill="white"/>
</g>
<defs>
<clipPath id="clip0_36_5005">
<rect width="7.5" height="7.5" fill="white" transform="translate(1.25073 1.24963)"/>
</clipPath>
</defs>
</svg>
