<svg width="16" height="17" viewBox="0 0 16 17" fill="none" xmlns="http://www.w3.org/2000/svg">
<circle cx="8" cy="8.75" r="8" fill="#00602B"/>
<path d="M13 7.79997C13.05 7.54997 12.85 7.24997 12.6 7.24997L9.75 6.84997L8.45 4.24997C8.4 4.14997 8.35 4.09997 8.25 4.04997C8 3.89997 7.7 3.99997 7.55 4.24997L6.3 6.84997L3.45 7.24997C3.3 7.24997 3.2 7.29997 3.15 7.39997C2.95 7.59997 2.95 7.89997 3.15 8.09997L5.2 10.1L4.7 12.95C4.7 13.05 4.7 13.15 4.75 13.25C4.9 13.5 5.2 13.6 5.45 13.45L8 12.1L10.55 13.45C10.6 13.5 10.7 13.5 10.8 13.5H10.9C11.15 13.45 11.35 13.2 11.3 12.9L10.8 10.05L12.85 8.04997C12.95 7.99997 13 7.89997 13 7.79997Z" fill="white"/>
</svg>
