<svg width="93" height="24" viewBox="0 0 93 24" fill="none" xmlns="http://www.w3.org/2000/svg">
<path d="M-0.00305176 13.4H4.19695L6.59695 8L8.99695 13.4H12.5969L9.59695 15.8L10.7969 20L6.59695 17.6L4.19695 20V23H25.1969" stroke="url(#paint0_linear_109_742)" stroke-width="1.3"/>
<path d="M24.1858 11.6193C24.777 11.7295 25.263 12.0251 25.6438 12.506C26.0245 12.987 26.2149 13.5381 26.2149 14.1593C26.2149 14.7204 26.0746 15.2164 25.7941 15.6473C25.5235 16.0681 25.1277 16.3988 24.6067 16.6393C24.0856 16.8798 23.4694 17 22.758 17H18.234V6.50906H22.5626C23.274 6.50906 23.8852 6.62429 24.3963 6.85475C24.9173 7.08521 25.3081 7.40585 25.5686 7.81667C25.8391 8.22749 25.9744 8.69342 25.9744 9.21446C25.9744 9.82568 25.8091 10.3367 25.4784 10.7475C25.1578 11.1583 24.7269 11.4489 24.1858 11.6193ZM20.3382 10.8377H22.262C22.763 10.8377 23.1488 10.7275 23.4193 10.507C23.6899 10.2766 23.8251 9.95093 23.8251 9.53009C23.8251 9.10925 23.6899 8.7836 23.4193 8.55314C23.1488 8.32268 22.763 8.20745 22.262 8.20745H20.3382V10.8377ZM22.4574 15.2866C22.9684 15.2866 23.3642 15.1663 23.6448 14.9259C23.9353 14.6854 24.0806 14.3447 24.0806 13.9038C24.0806 13.4529 23.9303 13.1022 23.6297 12.8517C23.3291 12.5912 22.9233 12.4609 22.4123 12.4609H20.3382V15.2866H22.4574ZM35.6324 12.6563C35.6324 12.9569 35.6123 13.2275 35.5722 13.4679H29.4851C29.5352 14.0691 29.7456 14.5401 30.1164 14.8808C30.4871 15.2214 30.943 15.3918 31.4841 15.3918C32.2656 15.3918 32.8218 15.0561 33.1524 14.3848H35.4219C35.1815 15.1864 34.7205 15.8477 34.0392 16.3687C33.3578 16.8798 32.5212 17.1353 31.5292 17.1353C30.7276 17.1353 30.0061 16.9599 29.3649 16.6092C28.7336 16.2485 28.2376 15.7425 27.8769 15.0912C27.5262 14.4399 27.3508 13.6884 27.3508 12.8367C27.3508 11.975 27.5262 11.2185 27.8769 10.5672C28.2276 9.91586 28.7186 9.41486 29.3498 9.06416C29.9811 8.71346 30.7075 8.53811 31.5292 8.53811C32.3208 8.53811 33.0272 8.70845 33.6484 9.04913C34.2797 9.38981 34.7656 9.87578 35.1063 10.507C35.457 11.1283 35.6324 11.8447 35.6324 12.6563ZM33.453 12.0551C33.443 11.514 33.2476 11.0832 32.8668 10.7625C32.4861 10.4319 32.0202 10.2666 31.4691 10.2666C30.948 10.2666 30.5071 10.4269 30.1464 10.7475C29.7957 11.0581 29.5803 11.494 29.5001 12.0551H33.453ZM40.3546 17.1353C39.6732 17.1353 39.062 17.015 38.5209 16.7745C37.9799 16.524 37.549 16.1884 37.2284 15.7675C36.9177 15.3467 36.7474 14.8808 36.7173 14.3697H38.8366C38.8767 14.6904 39.032 14.9559 39.3025 15.1663C39.5831 15.3768 39.9288 15.482 40.3396 15.482C40.7404 15.482 41.051 15.4018 41.2714 15.2415C41.5019 15.0812 41.6171 14.8758 41.6171 14.6253C41.6171 14.3547 41.4768 14.1543 41.1963 14.0241C40.9257 13.8838 40.4899 13.7335 39.8887 13.5732C39.2674 13.4229 38.7564 13.2675 38.3556 13.1072C37.9648 12.9469 37.6242 12.7014 37.3336 12.3708C37.053 12.0401 36.9127 11.5942 36.9127 11.0331C36.9127 10.5722 37.043 10.1513 37.3035 9.77057C37.5741 9.38981 37.9548 9.08921 38.4458 8.86877C38.9468 8.64833 39.533 8.53811 40.2043 8.53811C41.1963 8.53811 41.9879 8.78861 42.579 9.28961C43.1702 9.78059 43.4959 10.4469 43.556 11.2886H41.542C41.5119 10.9579 41.3716 10.6974 41.1211 10.507C40.8807 10.3066 40.555 10.2064 40.1442 10.2064C39.7634 10.2064 39.4678 10.2766 39.2574 10.4169C39.057 10.5571 38.9568 10.7525 38.9568 11.003C38.9568 11.2836 39.0971 11.499 39.3777 11.6493C39.6582 11.7896 40.0941 11.9349 40.6853 12.0852C41.2865 12.2355 41.7825 12.3908 42.1732 12.5511C42.564 12.7114 42.8997 12.9619 43.1802 13.3026C43.4708 13.6333 43.6211 14.0742 43.6311 14.6253C43.6311 15.1062 43.4959 15.5371 43.2253 15.9178C42.9648 16.2986 42.5841 16.5992 42.0831 16.8196C41.5921 17.0301 41.0159 17.1353 40.3546 17.1353ZM47.8083 10.4018V14.4299C47.8083 14.7104 47.8734 14.9158 48.0037 15.0461C48.144 15.1663 48.3744 15.2265 48.6951 15.2265H49.672V17H48.3494C46.5759 17 45.6891 16.1383 45.6891 14.4148V10.4018H44.6971V8.67338H45.6891V6.61427H47.8083V8.67338H49.672V10.4018H47.8083ZM54.3718 17.1353C53.6905 17.1353 53.0793 17.015 52.5382 16.7745C51.9971 16.524 51.5662 16.1884 51.2456 15.7675C50.935 15.3467 50.7646 14.8808 50.7346 14.3697H52.8538C52.8939 14.6904 53.0492 14.9559 53.3197 15.1663C53.6003 15.3768 53.946 15.482 54.3568 15.482C54.7576 15.482 55.0682 15.4018 55.2887 15.2415C55.5191 15.0812 55.6344 14.8758 55.6344 14.6253C55.6344 14.3547 55.4941 14.1543 55.2135 14.0241C54.943 13.8838 54.5071 13.7335 53.9059 13.5732C53.2847 13.4229 52.7737 13.2675 52.3729 13.1072C51.9821 12.9469 51.6414 12.7014 51.3508 12.3708C51.0703 12.0401 50.93 11.5942 50.93 11.0331C50.93 10.5722 51.0602 10.1513 51.3208 9.77057C51.5913 9.38981 51.9721 9.08921 52.463 8.86877C52.964 8.64833 53.5502 8.53811 54.2215 8.53811C55.2135 8.53811 56.0051 8.78861 56.5963 9.28961C57.1875 9.78059 57.5131 10.4469 57.5732 11.2886H55.5592C55.5292 10.9579 55.3889 10.6974 55.1384 10.507C54.8979 10.3066 54.5722 10.2064 54.1614 10.2064C53.7807 10.2064 53.4851 10.2766 53.2747 10.4169C53.0743 10.5571 52.9741 10.7525 52.9741 11.003C52.9741 11.2836 53.1143 11.499 53.3949 11.6493C53.6755 11.7896 54.1113 11.9349 54.7025 12.0852C55.3037 12.2355 55.7997 12.3908 56.1905 12.5511C56.5813 12.7114 56.9169 12.9619 57.1975 13.3026C57.4881 13.6333 57.6384 14.0742 57.6484 14.6253C57.6484 15.1062 57.5131 15.5371 57.2426 15.9178C56.9821 16.2986 56.6013 16.5992 56.1003 16.8196C55.6093 17.0301 55.0332 17.1353 54.3718 17.1353ZM67.1161 12.6563C67.1161 12.9569 67.0961 13.2275 67.056 13.4679H60.9688C61.0189 14.0691 61.2294 14.5401 61.6001 14.8808C61.9708 15.2214 62.4267 15.3918 62.9678 15.3918C63.7494 15.3918 64.3055 15.0561 64.6362 14.3848H66.9057C66.6652 15.1864 66.2043 15.8477 65.5229 16.3687C64.8416 16.8798 64.0049 17.1353 63.0129 17.1353C62.2113 17.1353 61.4899 16.9599 60.8486 16.6092C60.2173 16.2485 59.7213 15.7425 59.3606 15.0912C59.0099 14.4399 58.8346 13.6884 58.8346 12.8367C58.8346 11.975 59.0099 11.2185 59.3606 10.5672C59.7113 9.91586 60.2023 9.41486 60.8336 9.06416C61.4648 8.71346 62.1913 8.53811 63.0129 8.53811C63.8045 8.53811 64.5109 8.70845 65.1321 9.04913C65.7634 9.38981 66.2494 9.87578 66.5901 10.507C66.9408 11.1283 67.1161 11.8447 67.1161 12.6563ZM64.9368 12.0551C64.9267 11.514 64.7313 11.0832 64.3506 10.7625C63.9698 10.4319 63.5039 10.2666 62.9528 10.2666C62.4318 10.2666 61.9909 10.4269 61.6302 10.7475C61.2795 11.0581 61.064 11.494 60.9839 12.0551H64.9368ZM70.7562 5.8778V17H68.652V5.8778H70.7562ZM74.9393 5.8778V17H72.8351V5.8778H74.9393ZM84.7587 12.6563C84.7587 12.9569 84.7387 13.2275 84.6986 13.4679H78.6115C78.6616 14.0691 78.872 14.5401 79.2427 14.8808C79.6135 15.2214 80.0694 15.3918 80.6105 15.3918C81.392 15.3918 81.9481 15.0561 82.2788 14.3848H84.5483C84.3078 15.1864 83.8469 15.8477 83.1656 16.3687C82.4842 16.8798 81.6475 17.1353 80.6556 17.1353C79.854 17.1353 79.1325 16.9599 78.4912 16.6092C77.86 16.2485 77.364 15.7425 77.0033 15.0912C76.6526 14.4399 76.4772 13.6884 76.4772 12.8367C76.4772 11.975 76.6526 11.2185 77.0033 10.5672C77.354 9.91586 77.8449 9.41486 78.4762 9.06416C79.1075 8.71346 79.8339 8.53811 80.6556 8.53811C81.4471 8.53811 82.1535 8.70845 82.7748 9.04913C83.406 9.38981 83.892 9.87578 84.2327 10.507C84.5834 11.1283 84.7587 11.8447 84.7587 12.6563ZM82.5794 12.0551C82.5694 11.514 82.374 11.0832 81.9932 10.7625C81.6125 10.4319 81.1465 10.2666 80.5954 10.2666C80.0744 10.2666 79.6335 10.4269 79.2728 10.7475C78.9221 11.0581 78.7067 11.494 78.6265 12.0551H82.5794ZM88.3988 9.96596C88.6694 9.52508 89.0201 9.17939 89.4509 8.92889C89.8918 8.67839 90.3928 8.55314 90.9539 8.55314V10.7625H90.3978C89.7365 10.7625 89.2355 10.9179 88.8948 11.2285C88.5642 11.5391 88.3988 12.0802 88.3988 12.8517V17H86.2946V8.67338H88.3988V9.96596Z" fill="url(#paint1_linear_109_742)"/>
<defs>
<linearGradient id="paint0_linear_109_742" x1="3.76648" y1="15.5" x2="27.0773" y2="18.0075" gradientUnits="userSpaceOnUse">
<stop stop-color="#C7102E"/>
<stop offset="0.594735" stop-color="#E62746"/>
<stop offset="1" stop-color="#FF3152"/>
</linearGradient>
<linearGradient id="paint1_linear_109_742" x1="28.4157" y1="11.5" x2="95.6645" y2="25.5405" gradientUnits="userSpaceOnUse">
<stop stop-color="#C7102E"/>
<stop offset="0.594735" stop-color="#E62746"/>
<stop offset="1" stop-color="#FF3152"/>
</linearGradient>
</defs>
</svg>
