<svg width="19" height="18" viewBox="0 0 19 18" fill="none" xmlns="http://www.w3.org/2000/svg">
<path d="M7.5 0H1.5C1.23478 0 0.98043 0.105357 0.792893 0.292893C0.605357 0.48043 0.5 0.734784 0.5 1V7C0.5 7.26522 0.605357 7.51957 0.792893 7.70711C0.98043 7.89464 1.23478 8 1.5 8H7.5C7.76522 8 8.01957 7.89464 8.20711 7.70711C8.39464 7.51957 8.5 7.26522 8.5 7V1C8.5 0.734784 8.39464 0.48043 8.20711 0.292893C8.01957 0.105357 7.76522 0 7.5 0Z" fill="url(#paint0_linear_1049_1868)"/>
<path d="M17.5 0H11.5C11.2348 0 10.9804 0.105357 10.7929 0.292893C10.6054 0.48043 10.5 0.734784 10.5 1V7C10.5 7.26522 10.6054 7.51957 10.7929 7.70711C10.9804 7.89464 11.2348 8 11.5 8H17.5C17.7652 8 18.0196 7.89464 18.2071 7.70711C18.3946 7.51957 18.5 7.26522 18.5 7V1C18.5 0.734784 18.3946 0.48043 18.2071 0.292893C18.0196 0.105357 17.7652 0 17.5 0Z" fill="url(#paint1_linear_1049_1868)"/>
<path d="M7.5 10H1.5C1.23478 10 0.98043 10.1054 0.792893 10.2929C0.605357 10.4804 0.5 10.7348 0.5 11V17C0.5 17.2652 0.605357 17.5196 0.792893 17.7071C0.98043 17.8946 1.23478 18 1.5 18H7.5C7.76522 18 8.01957 17.8946 8.20711 17.7071C8.39464 17.5196 8.5 17.2652 8.5 17V11C8.5 10.7348 8.39464 10.4804 8.20711 10.2929C8.01957 10.1054 7.76522 10 7.5 10Z" fill="url(#paint2_linear_1049_1868)"/>
<path d="M14.5 10C15.2826 10 16.048 10.2296 16.7014 10.6603C17.3549 11.091 17.8676 11.7039 18.1761 12.4232C18.4846 13.1424 18.5753 13.9363 18.4371 14.7066C18.2988 15.4769 17.9376 16.1898 17.3983 16.7568C16.8589 17.3239 16.165 17.7202 15.4026 17.8968C14.6402 18.0734 13.8427 18.0225 13.1089 17.7503C12.3752 17.4782 11.7374 16.9967 11.2745 16.3657C10.8117 15.7346 10.5441 14.9816 10.505 14.2L10.5 14L10.505 13.8C10.5563 12.775 10.9996 11.809 11.7432 11.1017C12.4868 10.3944 13.4738 10 14.5 10Z" fill="url(#paint3_linear_1049_1868)"/>
<path d="M7.5 0H1.5C1.23478 0 0.98043 0.105357 0.792893 0.292893C0.605357 0.48043 0.5 0.734784 0.5 1V7C0.5 7.26522 0.605357 7.51957 0.792893 7.70711C0.98043 7.89464 1.23478 8 1.5 8H7.5C7.76522 8 8.01957 7.89464 8.20711 7.70711C8.39464 7.51957 8.5 7.26522 8.5 7V1C8.5 0.734784 8.39464 0.48043 8.20711 0.292893C8.01957 0.105357 7.76522 0 7.5 0Z" stroke="url(#paint4_linear_1049_1868)"/>
<path d="M17.5 0H11.5C11.2348 0 10.9804 0.105357 10.7929 0.292893C10.6054 0.48043 10.5 0.734784 10.5 1V7C10.5 7.26522 10.6054 7.51957 10.7929 7.70711C10.9804 7.89464 11.2348 8 11.5 8H17.5C17.7652 8 18.0196 7.89464 18.2071 7.70711C18.3946 7.51957 18.5 7.26522 18.5 7V1C18.5 0.734784 18.3946 0.48043 18.2071 0.292893C18.0196 0.105357 17.7652 0 17.5 0Z" stroke="url(#paint5_linear_1049_1868)"/>
<path d="M7.5 10H1.5C1.23478 10 0.98043 10.1054 0.792893 10.2929C0.605357 10.4804 0.5 10.7348 0.5 11V17C0.5 17.2652 0.605357 17.5196 0.792893 17.7071C0.98043 17.8946 1.23478 18 1.5 18H7.5C7.76522 18 8.01957 17.8946 8.20711 17.7071C8.39464 17.5196 8.5 17.2652 8.5 17V11C8.5 10.7348 8.39464 10.4804 8.20711 10.2929C8.01957 10.1054 7.76522 10 7.5 10Z" stroke="url(#paint6_linear_1049_1868)"/>
<path d="M14.5 10C15.2826 10 16.048 10.2296 16.7014 10.6603C17.3549 11.091 17.8676 11.7039 18.1761 12.4232C18.4846 13.1424 18.5753 13.9363 18.4371 14.7066C18.2988 15.4769 17.9376 16.1898 17.3983 16.7568C16.8589 17.3239 16.165 17.7202 15.4026 17.8968C14.6402 18.0734 13.8427 18.0225 13.1089 17.7503C12.3752 17.4782 11.7374 16.9967 11.2745 16.3657C10.8117 15.7346 10.5441 14.9816 10.505 14.2L10.5 14L10.505 13.8C10.5563 12.775 10.9996 11.809 11.7432 11.1017C12.4868 10.3944 13.4738 10 14.5 10Z" stroke="url(#paint7_linear_1049_1868)"/>
<defs>
<linearGradient id="paint0_linear_1049_1868" x1="3.19252" y1="9" x2="19.967" y2="10.074" gradientUnits="userSpaceOnUse">
<stop stop-color="#C7102E"/>
<stop offset="0.594735" stop-color="#E62746"/>
<stop offset="1" stop-color="#FF3152"/>
</linearGradient>
<linearGradient id="paint1_linear_1049_1868" x1="3.19252" y1="9" x2="19.967" y2="10.074" gradientUnits="userSpaceOnUse">
<stop stop-color="#C7102E"/>
<stop offset="0.594735" stop-color="#E62746"/>
<stop offset="1" stop-color="#FF3152"/>
</linearGradient>
<linearGradient id="paint2_linear_1049_1868" x1="3.19252" y1="9" x2="19.967" y2="10.074" gradientUnits="userSpaceOnUse">
<stop stop-color="#C7102E"/>
<stop offset="0.594735" stop-color="#E62746"/>
<stop offset="1" stop-color="#FF3152"/>
</linearGradient>
<linearGradient id="paint3_linear_1049_1868" x1="3.19252" y1="9" x2="19.967" y2="10.074" gradientUnits="userSpaceOnUse">
<stop stop-color="#C7102E"/>
<stop offset="0.594735" stop-color="#E62746"/>
<stop offset="1" stop-color="#FF3152"/>
</linearGradient>
<linearGradient id="paint4_linear_1049_1868" x1="3.19252" y1="9" x2="19.967" y2="10.074" gradientUnits="userSpaceOnUse">
<stop stop-color="#C7102E"/>
<stop offset="0.594735" stop-color="#E62746"/>
<stop offset="1" stop-color="#FF3152"/>
</linearGradient>
<linearGradient id="paint5_linear_1049_1868" x1="3.19252" y1="9" x2="19.967" y2="10.074" gradientUnits="userSpaceOnUse">
<stop stop-color="#C7102E"/>
<stop offset="0.594735" stop-color="#E62746"/>
<stop offset="1" stop-color="#FF3152"/>
</linearGradient>
<linearGradient id="paint6_linear_1049_1868" x1="3.19252" y1="9" x2="19.967" y2="10.074" gradientUnits="userSpaceOnUse">
<stop stop-color="#C7102E"/>
<stop offset="0.594735" stop-color="#E62746"/>
<stop offset="1" stop-color="#FF3152"/>
</linearGradient>
<linearGradient id="paint7_linear_1049_1868" x1="3.19252" y1="9" x2="19.967" y2="10.074" gradientUnits="userSpaceOnUse">
<stop stop-color="#C7102E"/>
<stop offset="0.594735" stop-color="#E62746"/>
<stop offset="1" stop-color="#FF3152"/>
</linearGradient>
</defs>
</svg>
