<svg width="16" height="17" viewBox="0 0 16 17" fill="none" xmlns="http://www.w3.org/2000/svg">
<path d="M10.3333 8.75H8V5.41667M2 8.75C2 9.53793 2.15519 10.3181 2.45672 11.0461C2.75825 11.7741 3.20021 12.4355 3.75736 12.9926C4.31451 13.5498 4.97595 13.9917 5.7039 14.2933C6.43185 14.5948 7.21207 14.75 8 14.75C8.78793 14.75 9.56815 14.5948 10.2961 14.2933C11.0241 13.9917 11.6855 13.5498 12.2426 12.9926C12.7998 12.4355 13.2417 11.7741 13.5433 11.0461C13.8448 10.3181 14 9.53793 14 8.75C14 7.96207 13.8448 7.18185 13.5433 6.4539C13.2417 5.72595 12.7998 5.06451 12.2426 4.50736C11.6855 3.95021 11.0241 3.50825 10.2961 3.20672C9.56815 2.90519 8.78793 2.75 8 2.75C7.21207 2.75 6.43185 2.90519 5.7039 3.20672C4.97595 3.50825 4.31451 3.95021 3.75736 4.50736C3.20021 5.06451 2.75825 5.72595 2.45672 6.4539C2.15519 7.18185 2 7.96207 2 8.75Z" stroke="#DD203F" stroke-width="1.33333" stroke-linecap="round" stroke-linejoin="round"/>
</svg>
