<svg width="16" height="16" viewBox="0 0 16 16" fill="none" xmlns="http://www.w3.org/2000/svg">
<path d="M12.6667 10C11.5334 10 10.6667 10.8667 10.6667 12C10.6667 13.1333 11.5334 14 12.6667 14C13.8001 14 14.6667 13.1333 14.6667 12C14.6667 10.8667 13.8001 10 12.6667 10ZM12.6667 12.6667C12.2667 12.6667 12.0001 12.4 12.0001 12C12.0001 11.6 12.2667 11.3333 12.6667 11.3333C13.0667 11.3333 13.3334 11.6 13.3334 12C13.3334 12.4 13.0667 12.6667 12.6667 12.6667Z" fill="url(#paint0_linear_559_2171)"/>
<path d="M14.2666 8.33329C13.9333 8.19996 13.6666 8.13329 13.3333 8.06663V5.99996C14.0666 5.86663 14.6666 5.19996 14.6666 4.33329C14.6666 3.39996 13.9333 2.66663 12.9999 2.66663H11.3333C10.9333 2.66663 10.6666 2.93329 10.6666 3.33329C10.6666 3.73329 10.9333 3.99996 11.3333 3.99996H12.9999C13.1999 3.99996 13.3333 4.13329 13.3333 4.33329C13.3333 4.53329 13.1999 4.66663 12.9999 4.66663H12.6666C12.2666 4.66663 11.9999 4.93329 11.9999 5.33329V8.06663C10.5333 8.33329 9.39992 9.33329 8.93325 10.6666H7.99992V6.66663H8.66658C9.06658 6.66663 9.33325 6.39996 9.33325 5.99996C9.33325 5.59996 9.06658 5.33329 8.66658 5.33329H3.33325C2.93325 5.33329 2.66659 5.59996 2.66659 5.99996C2.66659 6.39996 2.93325 6.66663 3.33325 6.66663H4.46658C2.59992 7.59996 1.33325 9.33329 1.33325 11.3333C1.33325 11.7333 1.59992 12 1.99992 12H2.06659C2.19992 13.1333 3.19992 14 4.33325 14C5.46659 14 6.46658 13.1333 6.59992 12H8.66658C8.66658 12.4 8.93325 12.6666 9.33325 12.6666C9.73325 12.6666 9.99992 12.4 9.99992 12C9.99992 10.5333 11.1999 9.33329 12.6666 9.33329C13.0666 9.33329 13.3999 9.39996 13.7333 9.53329C14.0666 9.66663 14.4666 9.53329 14.5999 9.19996C14.7333 8.86663 14.5999 8.46663 14.2666 8.33329ZM4.33325 12.6666C3.86659 12.6666 3.53325 12.4 3.39992 12H5.26659C5.13325 12.4 4.79992 12.6666 4.33325 12.6666ZM6.66658 10.6666H2.73325C3.06659 8.93329 4.66659 7.59996 6.66658 7.39996V10.6666Z" fill="url(#paint1_linear_559_2171)"/>
<defs>
<linearGradient id="paint0_linear_559_2171" x1="12.6667" y1="10" x2="12.6667" y2="14" gradientUnits="userSpaceOnUse">
<stop stop-color="#C7102E"/>
<stop offset="1" stop-color="#F72E4F"/>
</linearGradient>
<linearGradient id="paint1_linear_559_2171" x1="7.99992" y1="2.66663" x2="7.99992" y2="14" gradientUnits="userSpaceOnUse">
<stop stop-color="#C7102E"/>
<stop offset="1" stop-color="#F72E4F"/>
</linearGradient>
</defs>
</svg>
