<svg width="16" height="16" viewBox="0 0 16 16" fill="none" xmlns="http://www.w3.org/2000/svg">
<path d="M12.8327 8.00002L13.5687 6.72802C13.6572 6.57498 13.6812 6.39308 13.6356 6.2223C13.59 6.05153 13.4784 5.90587 13.3254 5.81735L12.052 5.08135V3.61468C12.052 3.43787 11.9818 3.2683 11.8568 3.14328C11.7318 3.01826 11.5622 2.94802 11.3854 2.94802H9.91938L9.18404 1.67535C9.09568 1.52224 8.95012 1.41049 8.77938 1.36468C8.69479 1.34202 8.60657 1.33624 8.51975 1.34768C8.43292 1.35912 8.34921 1.38755 8.27338 1.43135L7.00004 2.16735L5.72671 1.43068C5.57359 1.34228 5.39163 1.31833 5.22085 1.36409C5.05006 1.40984 4.90445 1.52157 4.81604 1.67468L4.08004 2.94802H2.61404C2.43723 2.94802 2.26766 3.01826 2.14264 3.14328C2.01762 3.2683 1.94738 3.43787 1.94738 3.61468V5.08068L0.674045 5.81668C0.598197 5.86052 0.531732 5.91887 0.478448 5.9884C0.425163 6.05793 0.386106 6.13728 0.363507 6.22192C0.340909 6.30656 0.335212 6.39482 0.346744 6.48166C0.358275 6.5685 0.386808 6.65221 0.430712 6.72802L1.16671 8.00002L0.430712 9.27202C0.342704 9.4252 0.318826 9.60696 0.364284 9.77768C0.409741 9.9484 0.520848 10.0942 0.673378 10.1834L1.94671 10.9194V12.3854C1.94671 12.5622 2.01695 12.7317 2.14197 12.8568C2.267 12.9818 2.43657 13.052 2.61338 13.052H4.08004L4.81604 14.3254C4.87507 14.4262 4.95934 14.51 5.06056 14.5685C5.16179 14.6269 5.27649 14.658 5.39338 14.6587C5.50938 14.6587 5.62471 14.628 5.72738 14.5687L6.99938 13.8327L8.27271 14.5687C8.42575 14.6571 8.60765 14.6812 8.77843 14.6356C8.9492 14.5899 9.09486 14.4784 9.18338 14.3254L9.91871 13.052H11.3847C11.5615 13.052 11.7311 12.9818 11.8561 12.8568C11.9811 12.7317 12.0514 12.5622 12.0514 12.3854V10.9194L13.3247 10.1834C13.4006 10.1395 13.467 10.0812 13.5203 10.0116C13.5736 9.9421 13.6126 9.86275 13.6352 9.77811C13.6578 9.69348 13.6635 9.60522 13.652 9.51838C13.6405 9.43154 13.6119 9.34782 13.568 9.27202L12.8327 8.00002ZM5.33271 4.66002C5.59802 4.66011 5.85242 4.76558 6.03996 4.95324C6.22749 5.14091 6.3328 5.39538 6.33271 5.66068C6.33262 5.92599 6.22715 6.18039 6.03948 6.36793C5.85182 6.55547 5.59735 6.66077 5.33204 6.66068C5.06674 6.6606 4.81234 6.55512 4.6248 6.36746C4.43726 6.1798 4.33196 5.92532 4.33204 5.66002C4.33213 5.39471 4.43761 5.14031 4.62527 4.95277C4.81293 4.76524 5.06741 4.65993 5.33271 4.66002ZM5.53271 11.06L4.46604 10.2607L8.46604 4.92735L9.53271 5.72668L5.53271 11.06ZM8.66604 11.3267C8.53468 11.3266 8.40461 11.3007 8.28326 11.2504C8.16191 11.2001 8.05166 11.1264 7.9588 11.0335C7.86594 10.9405 7.79229 10.8302 7.74206 10.7089C7.69183 10.5875 7.666 10.4574 7.66604 10.326C7.66609 10.1947 7.69201 10.0646 7.74232 9.94323C7.79263 9.82188 7.86635 9.71163 7.95927 9.61877C8.05219 9.52591 8.16249 9.45227 8.28387 9.40204C8.40526 9.3518 8.53535 9.32597 8.66671 9.32602C8.93202 9.32611 9.18642 9.43158 9.37396 9.61924C9.56149 9.8069 9.6668 10.0614 9.66671 10.3267C9.66662 10.592 9.56115 10.8464 9.37348 11.0339C9.18582 11.2215 8.93135 11.3268 8.66604 11.3267Z" fill="#C7102E"/>
</svg>
