<svg width="21" height="19" viewBox="0 0 21 19" fill="none" xmlns="http://www.w3.org/2000/svg">
<path d="M5.4762 1.07401C6.36126 0.92321 7.26888 0.972956 8.13216 1.21958C8.99544 1.46621 9.79237 1.90343 10.4642 2.49901L10.5012 2.53201L10.5352 2.50201C11.1764 1.93931 11.9302 1.51981 12.7464 1.27149C13.5625 1.02318 14.4223 0.951766 15.2682 1.06201L15.5142 1.09801C16.5805 1.28212 17.5772 1.75117 18.3987 2.45548C19.2201 3.1598 19.8359 4.07316 20.1806 5.09885C20.5254 6.12454 20.5864 7.22437 20.3571 8.28188C20.1278 9.33939 19.6168 10.3152 18.8782 11.106L18.6982 11.291L18.6502 11.332L11.2002 18.711C11.0283 18.8812 10.8005 18.9832 10.5591 18.9983C10.3177 19.0134 10.079 18.9405 9.8872 18.793L9.7932 18.711L2.3002 11.289C1.50642 10.5167 0.941897 9.53969 0.669156 8.46628C0.396415 7.39287 0.426098 6.26491 0.754916 5.20733C1.08373 4.14974 1.69886 3.20381 2.53216 2.47428C3.36546 1.74476 4.38442 1.26011 5.4762 1.07401Z" fill="url(#paint0_linear_1049_1903)"/>
<defs>
<linearGradient id="paint0_linear_1049_1903" x1="3.47741" y1="9.99452" x2="22.1063" y2="11.3196" gradientUnits="userSpaceOnUse">
<stop stop-color="#C7102E"/>
<stop offset="0.594735" stop-color="#E62746"/>
<stop offset="1" stop-color="#FF3152"/>
</linearGradient>
</defs>
</svg>
