<svg width="25" height="24" viewBox="0 0 25 24" fill="none" xmlns="http://www.w3.org/2000/svg">
<path d="M19.9974 12.5719L12.4974 19.9999L4.99737 12.5719C4.50268 12.0905 4.11301 11.5119 3.85292 10.8726C3.59282 10.2332 3.46793 9.54688 3.48611 8.85687C3.50428 8.16685 3.66513 7.48807 3.95853 6.86327C4.25192 6.23847 4.67151 5.68119 5.19086 5.22651C5.71021 4.77184 6.31808 4.42962 6.97618 4.22141C7.63429 4.01321 8.32838 3.94352 9.01474 4.01673C9.7011 4.08995 10.3649 4.30449 10.9642 4.64684C11.5636 4.98919 12.0856 5.45193 12.4974 6.00593C12.9109 5.45595 13.4335 4.99725 14.0325 4.65854C14.6314 4.31982 15.2939 4.10838 15.9783 4.03745C16.6627 3.96652 17.3545 4.03763 18.0101 4.24632C18.6658 4.45502 19.2714 4.79681 19.7889 5.2503C20.3064 5.70379 20.7248 6.25922 21.0178 6.88182C21.3108 7.50443 21.4721 8.18082 21.4917 8.86864C21.5112 9.55647 21.3886 10.2409 21.1315 10.8792C20.8744 11.5174 20.4883 12.0958 19.9974 12.5779" stroke="#999999" stroke-width="2" stroke-linecap="round" stroke-linejoin="round"/>
</svg>
