<svg width="24" height="24" viewBox="0 0 24 24" fill="none" xmlns="http://www.w3.org/2000/svg">
<path d="M5 12H3L12 3L21 12H19" fill="url(#paint0_linear_1049_1863)"/>
<path d="M5 12V19C5 19.5304 5.21071 20.0391 5.58579 20.4142C5.96086 20.7893 6.46957 21 7 21H17C17.5304 21 18.0391 20.7893 18.4142 20.4142C18.7893 20.0391 19 19.5304 19 19V12" fill="url(#paint1_linear_1049_1863)"/>
<path d="M5 12H3L12 3L21 12H19V19C19 19.5304 18.7893 20.0391 18.4142 20.4142C18.0391 20.7893 17.5304 21 17 21H7C6.46957 21 5.96086 20.7893 5.58579 20.4142C5.21071 20.0391 5 19.5304 5 19V12Z" stroke="url(#paint2_linear_1049_1863)" stroke-width="1.5" stroke-linecap="round" stroke-linejoin="round"/>
<path d="M9 21V15C9 14.4696 9.21071 13.9609 9.58579 13.5858C9.96086 13.2107 10.4696 13 11 13H13C13.5304 13 14.0391 13.2107 14.4142 13.5858C14.7893 13.9609 15 14.4696 15 15V21" fill="white"/>
<path d="M9 21V15C9 14.4696 9.21071 13.9609 9.58579 13.5858C9.96086 13.2107 10.4696 13 11 13H13C13.5304 13 14.0391 13.2107 14.4142 13.5858C14.7893 13.9609 15 14.4696 15 15V21H9Z" stroke="url(#paint3_linear_1049_1863)" stroke-width="1.5" stroke-linecap="round" stroke-linejoin="round"/>
<defs>
<linearGradient id="paint0_linear_1049_1863" x1="5.69252" y1="12" x2="22.467" y2="13.074" gradientUnits="userSpaceOnUse">
<stop stop-color="#C7102E"/>
<stop offset="0.594735" stop-color="#E62746"/>
<stop offset="1" stop-color="#FF3152"/>
</linearGradient>
<linearGradient id="paint1_linear_1049_1863" x1="5.69252" y1="12" x2="22.467" y2="13.074" gradientUnits="userSpaceOnUse">
<stop stop-color="#C7102E"/>
<stop offset="0.594735" stop-color="#E62746"/>
<stop offset="1" stop-color="#FF3152"/>
</linearGradient>
<linearGradient id="paint2_linear_1049_1863" x1="5.69252" y1="12" x2="22.467" y2="13.074" gradientUnits="userSpaceOnUse">
<stop stop-color="#C7102E"/>
<stop offset="0.594735" stop-color="#E62746"/>
<stop offset="1" stop-color="#FF3152"/>
</linearGradient>
<linearGradient id="paint3_linear_1049_1863" x1="9.89751" y1="17" x2="15.499" y2="17.269" gradientUnits="userSpaceOnUse">
<stop stop-color="#C7102E"/>
<stop offset="0.594735" stop-color="#E62746"/>
<stop offset="1" stop-color="#FF3152"/>
</linearGradient>
</defs>
</svg>
