<svg width="18" height="17" viewBox="0 0 18 17" fill="none" xmlns="http://www.w3.org/2000/svg">
<path d="M12.646 0.226702C14.4678 0.26791 16.1413 1.44214 16.8243 3.21511C17.6726 5.41601 17.0647 7.9529 15.9395 10.1267C14.5947 12.7241 12.113 14.6007 9.56821 16.2155C9.56821 16.2155 8.57667 16.6913 7.61208 16.0736C4.33318 13.953 1.27237 11.1558 0.406724 7.33197C-0.251822 4.42351 0.818449 0.782473 4.15941 0.27601C5.83326 0.0220743 8.09899 1.25019 8.7015 2.34307C9.28912 1.25301 11.0296 0.270727 12.4939 0.227054C12.5702 0.22635 12.5698 0.225998 12.646 0.226702Z" fill="url(#paint0_linear_188_2092)"/>
<defs>
<linearGradient id="paint0_linear_188_2092" x1="2.7651" y1="8.30839" x2="18.6008" y2="9.37474" gradientUnits="userSpaceOnUse">
<stop stop-color="#C7102E"/>
<stop offset="0.594735" stop-color="#E62746"/>
<stop offset="1" stop-color="#FF3152"/>
</linearGradient>
</defs>
</svg>
