<svg width="20" height="20" viewBox="0 0 20 20" fill="none" xmlns="http://www.w3.org/2000/svg">
<path d="M14.6163 0.000475151C16.7595 0.0514613 18.7284 1.50435 19.5319 3.69806C20.5299 6.42124 19.8148 9.56016 18.491 12.2498C16.9089 15.4637 13.9893 17.7855 10.9953 19.7835C10.9953 19.7835 9.82883 20.3723 8.69401 19.6079C4.83648 16.9841 1.23554 13.5231 0.217125 8.79188C-0.557636 5.19322 0.701507 0.688134 4.63205 0.0614839C6.60128 -0.252713 9.26684 1.26685 9.97569 2.61907C10.667 1.27033 12.7147 0.0549473 14.4373 0.000910691C14.527 3.91328e-05 14.5266 -0.000396407 14.6163 0.000475151Z" fill="url(#paint0_linear_808_2746)"/>
<defs>
<linearGradient id="paint0_linear_808_2746" x1="2.99169" y1="10" x2="21.63" y2="11.1934" gradientUnits="userSpaceOnUse">
<stop stop-color="#C7102E"/>
<stop offset="0.594735" stop-color="#E62746"/>
<stop offset="1" stop-color="#FF3152"/>
</linearGradient>
</defs>
</svg>
