<svg width="21" height="21" viewBox="0 0 21 21" fill="none" xmlns="http://www.w3.org/2000/svg">
<path d="M15.9485 3.72431C15.0614 3.48908 14.1255 3.5139 13.2521 3.79582C12.3788 4.07774 11.6049 4.60486 11.0228 5.31434C11.0201 5.31776 11.0167 5.32053 11.0128 5.32243C11.0089 5.32433 11.0046 5.32532 11.0003 5.32532C10.9959 5.32532 10.9916 5.32433 10.9877 5.32243C10.9838 5.32053 10.9804 5.31776 10.9777 5.31434C10.3956 4.60486 9.62173 4.07774 8.74839 3.79582C7.87505 3.5139 6.93906 3.48908 6.052 3.72431C3.77955 4.31911 2.36265 6.56341 2.5225 8.9065C2.92984 14.8943 9.7541 18.435 11 18.435C12.2459 18.435 19.0701 14.8943 19.478 8.90703C19.6379 6.56341 18.221 4.31911 15.9485 3.72431ZM11 17.3728C10.0563 17.3696 3.79123 13.9448 3.57084 8.63247C3.50286 6.99517 4.43648 5.42055 5.97659 4.86027C6.80311 4.55272 7.71194 4.5483 8.54141 4.84781C9.37089 5.14731 10.0672 5.73132 10.5066 6.49597C10.5552 6.58421 10.6266 6.6578 10.7133 6.70905C10.8001 6.7603 10.899 6.78734 10.9997 6.78734C11.1005 6.78734 11.1994 6.7603 11.2861 6.70905C11.3728 6.6578 11.4442 6.58421 11.4928 6.49597C11.9321 5.73124 12.6285 5.14717 13.458 4.84765C14.2875 4.54813 15.1963 4.55261 16.0229 4.86027C17.563 5.42055 18.4966 6.99517 18.4286 8.63247C18.2087 13.9448 11.9437 17.3696 11 17.3728Z" fill="white"/>
</svg>
