<svg width="20" height="20" viewBox="0 0 20 20" fill="none" xmlns="http://www.w3.org/2000/svg">
<path d="M14.5986 0.75C16.2959 0.790436 17.9069 1.87826 18.6836 3.60254L18.8281 3.95605C19.6677 6.24708 19.1741 8.94688 18.0508 11.4258L17.8184 11.9189C16.3387 14.9246 13.5903 17.1447 10.6328 19.123C10.6139 19.1308 10.5874 19.1418 10.5537 19.1533C10.4654 19.1834 10.336 19.2189 10.1816 19.2373C9.87662 19.2736 9.49541 19.2425 9.11523 18.9873H9.11621C5.42636 16.4775 2.11938 13.2842 1.04688 9.04688L0.950195 8.63379L0.888672 8.31836C0.607934 6.73203 0.750204 5.00561 1.34961 3.60742C1.94081 2.22856 2.95436 1.20222 4.44531 0.861328L4.75 0.801758C5.51971 0.678949 6.51297 0.913645 7.43652 1.38379C8.36936 1.8587 9.05884 2.48509 9.31152 2.9668L9.9834 4.24902L10.6436 2.96094C10.9035 2.45405 11.4626 1.90513 12.2002 1.4707C12.932 1.03973 13.753 0.773182 14.4609 0.750977L14.46 0.75H14.5986Z" stroke="#999999" stroke-width="1.5"/>
</svg>
