<svg width="18" height="19" viewBox="0 0 18 19" fill="none" xmlns="http://www.w3.org/2000/svg">
<path d="M9 18.8872C13.9706 18.8872 18 14.8578 18 9.88721C18 4.91664 13.9706 0.887207 9 0.887207C4.02944 0.887207 0 4.91664 0 9.88721C0 14.8578 4.02944 18.8872 9 18.8872Z" fill="url(#paint0_linear_90_3139)"/>
<g clip-path="url(#clip0_90_3139)">
<path d="M14.3861 10.7806H13.5762C13.5338 8.5754 11.6057 6.79344 9.23976 6.79344C8.45318 6.79344 7.71549 6.99136 7.07865 7.33539L6.73215 6.98903C6.89356 6.75584 6.97969 6.47881 6.97897 6.1952C6.97949 6.01153 6.94356 5.82958 6.87328 5.65989C6.80299 5.4902 6.69974 5.33614 6.5695 5.20664C6.30542 4.94241 5.95428 4.79688 5.58079 4.79688C5.20731 4.79688 4.85617 4.94241 4.59223 5.20664C4.33888 5.45976 4.19276 5.80075 4.18421 6.15878C3.82561 6.16685 3.48404 6.31338 3.23105 6.56767C3.10075 6.69717 2.99743 6.85124 2.92709 7.02096C2.85676 7.19067 2.82079 7.37266 2.82129 7.55637C2.82081 7.74006 2.85678 7.92202 2.92712 8.09171C2.99746 8.2614 3.10076 8.41545 3.23105 8.54493C3.36056 8.67517 3.51462 8.77842 3.68431 8.84871C3.854 8.919 4.03595 8.95492 4.21962 8.9544C4.50316 8.95514 4.78013 8.86906 5.01331 8.70774L5.35502 9.04944C5.06996 9.58277 4.91523 10.176 4.90347 10.7806H4.28186C4.16642 10.7806 4.0557 10.8265 3.97406 10.9081C3.89243 10.9898 3.84657 11.1005 3.84657 11.2159C3.84657 13.1247 6.25695 14.6201 9.33393 14.6201C12.4112 14.6201 14.8213 13.1247 14.8213 11.2159C14.8213 11.1005 14.7755 10.9898 14.6939 10.9082C14.6122 10.8265 14.5016 10.7807 14.3861 10.7806ZM9.23976 7.66389C11.1247 7.66389 12.6627 9.05539 12.7056 10.7805H12.1042C11.9904 9.37708 10.7505 8.2675 9.23976 8.2675C9.1826 8.2675 9.12599 8.27876 9.07318 8.30064C9.02037 8.32252 8.97238 8.35458 8.93196 8.395C8.89154 8.43542 8.85947 8.48341 8.8376 8.53622C8.81572 8.58903 8.80446 8.64564 8.80446 8.7028C8.80446 8.75997 8.81572 8.81657 8.8376 8.86938C8.85947 8.9222 8.89154 8.97018 8.93196 9.0106C8.97238 9.05102 9.02037 9.08309 9.07318 9.10496C9.12599 9.12684 9.1826 9.1381 9.23976 9.1381C10.2685 9.1381 11.1176 9.85765 11.2311 10.7805H5.77421C5.81701 9.05539 7.35449 7.66389 9.23976 7.66389ZM5.3244 7.78766C5.27898 7.74224 5.22407 7.70743 5.1636 7.68573C5.10314 7.66404 5.03862 7.656 4.97468 7.66218C4.91074 7.66837 4.84896 7.68863 4.79377 7.72151C4.73859 7.7544 4.69137 7.79909 4.65549 7.85238C4.63695 7.88013 4.61571 7.90598 4.59209 7.92957C4.39315 8.12879 4.04593 8.12879 3.84657 7.92928C3.74674 7.82959 3.69189 7.69726 3.69189 7.55652C3.69189 7.41577 3.74688 7.2833 3.84671 7.18332C4.04564 6.98439 4.39315 6.98425 4.5918 7.18347C4.63218 7.22394 4.68014 7.25606 4.73294 7.278C4.78574 7.29993 4.84235 7.31125 4.89952 7.31132C4.9567 7.31138 5.01333 7.30017 5.06617 7.27835C5.11902 7.25653 5.16705 7.22451 5.20752 7.18412C5.248 7.14373 5.28012 7.09577 5.30205 7.04297C5.32399 6.99017 5.33531 6.93357 5.33537 6.87639C5.33543 6.81922 5.32423 6.76259 5.30241 6.70974C5.28058 6.65689 5.24856 6.60886 5.20818 6.56839C5.10942 6.46933 5.05396 6.33517 5.05393 6.1953C5.05391 6.05543 5.10932 5.92124 5.20803 5.82215C5.40725 5.62278 5.75448 5.62263 5.95413 5.82229C6.00328 5.87107 6.04224 5.92913 6.06874 5.9931C6.09524 6.05707 6.10877 6.12566 6.10852 6.19491C6.10874 6.28132 6.08758 6.36645 6.04692 6.44271C6.00626 6.51896 5.94737 6.58397 5.87549 6.63195C5.82247 6.66795 5.77806 6.71522 5.74542 6.77037C5.71279 6.82552 5.69273 6.8872 5.68669 6.951C5.68064 7.0148 5.68876 7.07915 5.71046 7.13945C5.73216 7.19975 5.76691 7.25452 5.81223 7.29984L6.34503 7.8325C6.16874 7.98065 6.0049 8.14303 5.85518 8.318L5.3244 7.78766ZM9.33407 13.7495C7.10114 13.7495 5.17727 12.8261 4.7887 11.6512H13.8795C13.4907 12.8258 11.567 13.7495 9.33407 13.7495Z" fill="white"/>
</g>
<defs>
<linearGradient id="paint0_linear_90_3139" x1="2.69252" y1="9.88721" x2="19.467" y2="10.9612" gradientUnits="userSpaceOnUse">
<stop stop-color="#C7102E"/>
<stop offset="0.594735" stop-color="#E62746"/>
<stop offset="1" stop-color="#FF3152"/>
</linearGradient>
<clipPath id="clip0_90_3139">
<rect width="12" height="12" fill="white" transform="translate(2.82129 3.7085)"/>
</clipPath>
</defs>
</svg>
