<svg width="16" height="16" viewBox="0 0 16 16" fill="none" xmlns="http://www.w3.org/2000/svg">
<path d="M7.99996 0C3.58881 0 0 3.58872 0 7.99996C0 12.4112 3.58881 16 7.99996 16C12.4111 16 15.9999 12.4112 15.9999 7.99996C15.9999 3.58872 12.4112 0 7.99996 0ZM12.5937 6.6487L7.56771 11.6747C7.46291 11.7801 7.33824 11.8636 7.20092 11.9205C7.0636 11.9774 6.91637 12.0064 6.76774 12.006C6.46555 12.006 6.18147 11.8884 5.96777 11.6747L3.40624 9.11314C3.30084 9.00834 3.21727 8.88368 3.16038 8.74636C3.10349 8.60904 3.07442 8.4618 3.07483 8.31317C3.07483 8.01089 3.19254 7.72682 3.40624 7.51311C3.51104 7.40771 3.6357 7.32414 3.77302 7.26725C3.91034 7.21037 4.05758 7.18129 4.20621 7.18171C4.5084 7.18171 4.79256 7.29941 5.00618 7.5132L6.76765 9.27459L10.9936 5.04867C11.0984 4.94328 11.223 4.85973 11.3604 4.80286C11.4977 4.74599 11.6449 4.71692 11.7935 4.71735C12.0957 4.71735 12.3798 4.83497 12.5935 5.04867C13.0348 5.48994 13.0348 6.2076 12.5937 6.6487Z" fill="url(#paint0_linear_1048_4188)"/>
<defs>
<linearGradient id="paint0_linear_1048_4188" x1="2.39334" y1="8" x2="17.3039" y2="8.95468" gradientUnits="userSpaceOnUse">
<stop stop-color="#C7102E"/>
<stop offset="0.594735" stop-color="#E62746"/>
<stop offset="1" stop-color="#FF3152"/>
</linearGradient>
</defs>
</svg>
