<svg width="18" height="16" viewBox="0 0 18 16" fill="none" xmlns="http://www.w3.org/2000/svg">
<path d="M13.9485 0.724309C13.0614 0.48908 12.1255 0.513904 11.2521 0.795821C10.3788 1.07774 9.60493 1.60486 9.02282 2.31434C9.02014 2.31776 9.01671 2.32053 9.0128 2.32243C9.00889 2.32433 9.0046 2.32532 9.00025 2.32532C8.9959 2.32532 8.99161 2.32433 8.9877 2.32243C8.98379 2.32053 8.98037 2.31776 8.97768 2.31434C8.39558 1.60486 7.62173 1.07774 6.74839 0.795821C5.87505 0.513904 4.93906 0.48908 4.052 0.724309C1.77955 1.31911 0.362652 3.56341 0.522504 5.9065C0.929835 11.8943 7.7541 15.435 8.99999 15.435C10.2459 15.435 17.0701 11.8943 17.478 5.90703C17.6379 3.56341 16.221 1.31911 13.9485 0.724309ZM8.99999 14.3728C8.05627 14.3696 1.79123 10.9448 1.57084 5.63247C1.50286 3.99517 2.43648 2.42055 3.97659 1.86027C4.80311 1.55272 5.71194 1.5483 6.54141 1.84781C7.37089 2.14731 8.06724 2.73132 8.50662 3.49597C8.55522 3.58421 8.62661 3.6578 8.71335 3.70905C8.80008 3.7603 8.89898 3.78734 8.99972 3.78734C9.10047 3.78734 9.19936 3.7603 9.2861 3.70905C9.37283 3.6578 9.44422 3.58421 9.49282 3.49597C9.93212 2.73125 10.6285 2.14717 11.458 1.84765C12.2875 1.54813 13.1963 1.55261 14.0229 1.86027C15.563 2.42055 16.4966 3.99517 16.4286 5.63247C16.2087 10.9448 9.9437 14.3696 8.99999 14.3728Z" fill="white"/>
</svg>
