<svg width="15" height="16" viewBox="0 0 15 16" fill="none" xmlns="http://www.w3.org/2000/svg">
<g clip-path="url(#clip0_90_3145)">
<path d="M7.5 15.3872C11.6421 15.3872 15 12.0293 15 7.88721C15 3.74507 11.6421 0.387207 7.5 0.387207C3.35786 0.387207 0 3.74507 0 7.88721C0 12.0293 3.35786 15.3872 7.5 15.3872Z" fill="#05B443"/>
<path fill-rule="evenodd" clip-rule="evenodd" d="M8.11917 12.3998C8.10152 12.3998 8.08387 12.3998 8.06622 12.3998C7.80152 12.3116 7.81917 11.8174 7.96034 9.47039C8.01328 8.78215 8.04858 7.8998 8.10152 6.89392C8.10152 6.89392 8.10152 6.87627 8.10152 6.85862C8.2074 6.50568 8.43681 6.18803 8.75446 6.01156C9.08975 5.81744 9.46034 5.7645 9.83093 5.87039C10.2015 5.95862 10.5015 6.18803 10.678 6.52333C10.8721 6.84097 10.925 7.22921 10.8192 7.58215V7.5998C10.3603 8.4998 9.95446 9.29392 9.63681 9.91156C8.63093 11.888 8.36622 12.3998 8.11917 12.3998ZM8.34858 6.91156C8.31328 7.91744 8.26034 8.78215 8.2074 9.48803C8.13681 10.7939 8.06622 11.8351 8.13681 12.1174C8.34858 11.9233 8.8074 10.9704 9.4074 9.80568C9.7074 9.17039 10.1133 8.39392 10.5721 7.51156C10.6427 7.21156 10.6074 6.91156 10.4486 6.64686C10.2898 6.38215 10.0603 6.18803 9.76034 6.11744C9.46034 6.02921 9.1427 6.08215 8.87799 6.24097C8.61328 6.38215 8.43681 6.62921 8.34858 6.91156Z" fill="white"/>
<path fill-rule="evenodd" clip-rule="evenodd" d="M9.77634 6.11993C9.75869 6.11993 9.75869 6.11993 9.74105 6.10228C9.67046 6.08463 9.63517 6.01405 9.65281 5.9611L10.3234 3.45522C10.341 3.40228 10.4116 3.34934 10.4822 3.36699C10.5528 3.40228 10.5881 3.45522 10.5705 3.52581L9.89987 6.01405C9.88222 6.08463 9.84693 6.11993 9.77634 6.11993Z" fill="white"/>
<path fill-rule="evenodd" clip-rule="evenodd" d="M10.2528 4.35137C10.2351 4.35137 10.1998 4.33372 10.1822 4.31607C10.1292 4.26313 10.1116 4.19255 10.1645 4.1396C10.6763 3.52196 11.2939 3.61019 11.3116 3.61019C11.3822 3.61019 11.4351 3.68078 11.4175 3.75137C11.4175 3.82196 11.3469 3.8749 11.2763 3.8749C11.2587 3.8749 10.7645 3.80431 10.3587 4.29843C10.3234 4.33372 10.2881 4.35137 10.2528 4.35137Z" fill="white"/>
<path fill-rule="evenodd" clip-rule="evenodd" d="M10.1169 4.88797C10.0639 4.88797 10.011 4.83503 9.99335 4.78209C9.88746 4.1468 9.41099 3.95268 9.41099 3.93503C9.35805 3.91738 9.32276 3.82915 9.34041 3.77621C9.3757 3.70562 9.44629 3.67032 9.51688 3.70562C9.53452 3.70562 10.1169 3.95268 10.2581 4.72915C10.2757 4.79974 10.2228 4.87032 10.1522 4.87032C10.1345 4.87032 10.1345 4.88797 10.1169 4.88797Z" fill="white"/>
<path fill-rule="evenodd" clip-rule="evenodd" d="M9.94039 5.52324C9.92274 5.52324 9.88745 5.5056 9.8698 5.48795C9.81686 5.45266 9.79921 5.36442 9.85216 5.31148C10.3639 4.69383 10.9816 4.78207 10.9992 4.78207C11.0698 4.79971 11.1227 4.85266 11.1227 4.92324C11.1051 5.01148 11.0345 5.04677 10.9639 5.04677C10.9463 5.04677 10.4698 4.97618 10.0463 5.4703C10.0286 5.5056 9.97569 5.52324 9.94039 5.52324Z" fill="white"/>
<path fill-rule="evenodd" clip-rule="evenodd" d="M9.84521 5.87268C9.79227 5.87268 9.72168 5.81974 9.72168 5.7668C9.6158 5.1315 9.15698 4.93738 9.13933 4.91974C9.06874 4.90209 9.0511 4.8315 9.06874 4.76091C9.10404 4.69032 9.17463 4.67268 9.22757 4.69032C9.26286 4.69032 9.84521 4.93738 9.96874 5.71385C9.98639 5.78444 9.93345 5.85503 9.88051 5.85503C9.86286 5.87268 9.84521 5.87268 9.84521 5.87268Z" fill="white"/>
<path fill-rule="evenodd" clip-rule="evenodd" d="M8.94721 7.51245C8.92956 7.51245 8.92956 7.51245 8.91191 7.51245L8.17074 7.31833C8.10015 7.30068 8.06485 7.23009 8.0825 7.1595C8.10015 7.08892 8.17074 7.05362 8.24132 7.07127L8.9825 7.26539C9.05309 7.28303 9.08838 7.35362 9.07074 7.42421C9.05309 7.47715 9.00015 7.51245 8.94721 7.51245Z" fill="white"/>
<path fill-rule="evenodd" clip-rule="evenodd" d="M8.73369 8.52299C8.71605 8.52299 8.6984 8.52299 8.6984 8.52299L8.11605 8.36417C8.04546 8.34652 8.01017 8.27593 8.02781 8.20534C8.04546 8.1524 8.11605 8.09946 8.18664 8.11711L8.75134 8.27593C8.82193 8.29358 8.87487 8.36417 8.83958 8.43476C8.83958 8.4877 8.78664 8.52299 8.73369 8.52299Z" fill="white"/>
<path fill-rule="evenodd" clip-rule="evenodd" d="M8.51134 9.5278C8.49369 9.5278 8.49369 9.5278 8.47604 9.51015L8.05251 9.40427C7.99957 9.38662 7.94663 9.31603 7.96428 9.24544C7.99957 9.17485 8.05251 9.13956 8.1231 9.15721L8.54663 9.26309C8.59957 9.29838 8.65251 9.35132 8.61722 9.42191C8.61722 9.47485 8.56428 9.5278 8.51134 9.5278Z" fill="white"/>
<path fill-rule="evenodd" clip-rule="evenodd" d="M8.40474 10.5491C8.40474 10.5491 8.3871 10.5491 8.36945 10.5491L7.99886 10.4432C7.92827 10.4256 7.89298 10.355 7.91063 10.2844C7.92827 10.2138 7.99886 10.1785 8.06945 10.1961L8.44004 10.302C8.51062 10.3197 8.54592 10.3903 8.52827 10.4609C8.52827 10.5138 8.45768 10.5491 8.40474 10.5491Z" fill="white"/>
<path fill-rule="evenodd" clip-rule="evenodd" d="M10.3626 8.3297C10.345 8.3297 10.3273 8.3297 10.3273 8.31205L9.70968 8.15323C9.63909 8.13558 9.60379 8.06499 9.62144 7.99441C9.63909 7.94147 9.70968 7.88852 9.78026 7.90617L10.3979 8.08264C10.4685 8.08264 10.5038 8.17088 10.4861 8.22382C10.4685 8.29441 10.4156 8.3297 10.3626 8.3297Z" fill="white"/>
<path fill-rule="evenodd" clip-rule="evenodd" d="M9.8836 9.26419C9.86596 9.26419 9.86596 9.26419 9.84831 9.24655L9.38949 9.12302C9.3189 9.10537 9.2836 9.03478 9.30125 8.96419C9.3189 8.8936 9.38949 8.85831 9.46007 8.87596L9.9189 8.99949C9.98949 9.01713 10.0248 9.08772 10.0071 9.15831C9.98949 9.21125 9.93654 9.26419 9.8836 9.26419Z" fill="white"/>
<path fill-rule="evenodd" clip-rule="evenodd" d="M9.40386 10.1809C9.40386 10.1809 9.38621 10.1809 9.36857 10.1809L8.92739 10.0574C8.87445 10.0398 8.82151 9.96918 8.83915 9.91624C8.8568 9.84565 8.92739 9.79271 8.99798 9.82801L9.43915 9.93389C9.50974 9.95154 9.54504 10.0221 9.52739 10.0927C9.50974 10.1457 9.4568 10.1809 9.40386 10.1809Z" fill="white"/>
<path fill-rule="evenodd" clip-rule="evenodd" d="M6.88416 12.3997C6.6371 12.3997 6.35475 11.8879 5.36651 9.91144C5.04887 9.27615 4.66063 8.49968 4.20181 7.59968C4.20181 7.59968 4.20181 7.59968 4.20181 7.58203C4.09592 7.22909 4.14887 6.84085 4.34298 6.52321C4.51945 6.18791 4.81945 5.9585 5.19004 5.87026C5.54298 5.76438 5.93122 5.81732 6.24887 6.01144C6.56651 6.18791 6.81357 6.50556 6.90181 6.8585C6.90181 6.8585 6.91945 6.87615 6.91945 6.89379C6.95475 7.88203 7.00769 8.76438 7.04298 9.45262C7.18416 11.8173 7.20181 12.3114 6.9371 12.3997C6.91945 12.3997 6.90181 12.3997 6.88416 12.3997ZM4.43122 7.51144C4.89004 8.39379 5.27828 9.17026 5.59592 9.78791C6.17828 10.9703 6.65475 11.9232 6.86651 12.1173C6.9371 11.835 6.86651 10.7938 6.79592 9.47026C6.74298 8.78203 6.70769 7.91732 6.65475 6.92909C6.56651 6.62909 6.39004 6.38203 6.12534 6.24085C5.86063 6.08203 5.54298 6.04673 5.24298 6.11732C4.94298 6.20556 4.69592 6.38203 4.55475 6.64673C4.39592 6.91144 4.36063 7.21144 4.43122 7.51144Z" fill="white"/>
<path fill-rule="evenodd" clip-rule="evenodd" d="M5.2026 6.11993C5.14966 6.11993 5.09672 6.08463 5.07907 6.01405L4.42613 3.52581C4.40848 3.45522 4.44377 3.40228 4.51436 3.36699C4.58495 3.34934 4.65554 3.40228 4.67319 3.45522L5.34377 5.9611C5.34377 6.01405 5.30848 6.10228 5.25554 6.10228C5.23789 6.11993 5.22025 6.11993 5.2026 6.11993Z" fill="white"/>
<path fill-rule="evenodd" clip-rule="evenodd" d="M4.74588 4.35726C4.71059 4.35726 4.6753 4.33962 4.64 4.30432C4.23412 3.8102 3.74 3.88079 3.72236 3.88079C3.65177 3.88079 3.58118 3.82785 3.58118 3.75726C3.56353 3.68667 3.61647 3.63373 3.68706 3.61609C3.72236 3.61609 4.34 3.5455 4.83412 4.1455C4.88706 4.19844 4.86941 4.26903 4.81647 4.32197C4.79883 4.33962 4.76353 4.35726 4.74588 4.35726Z" fill="white"/>
<path fill-rule="evenodd" clip-rule="evenodd" d="M4.88559 4.88785C4.86795 4.88785 4.86795 4.88785 4.8503 4.88785C4.77971 4.8702 4.74442 4.79961 4.76207 4.72903C4.90324 3.95256 5.46795 3.7055 5.50324 3.7055C5.55618 3.6702 5.64442 3.7055 5.66207 3.77608C5.69736 3.84667 5.66207 3.91726 5.59148 3.95256C5.55618 3.95256 5.11501 4.14667 5.00912 4.76432C4.99148 4.83491 4.93854 4.88785 4.88559 4.88785Z" fill="white"/>
<path fill-rule="evenodd" clip-rule="evenodd" d="M5.04867 5.52312C5.01338 5.52312 4.97808 5.50547 4.96044 5.47018C4.53691 4.97606 4.04279 5.04665 4.04279 5.04665C3.9722 5.04665 3.90161 5.01136 3.90161 4.92312C3.88397 4.85253 3.93691 4.79959 4.0075 4.78195C4.02514 4.78195 4.64279 4.69371 5.15455 5.31136C5.2075 5.3643 5.18985 5.43489 5.13691 5.48783C5.11926 5.50547 5.08397 5.52312 5.04867 5.52312Z" fill="white"/>
<path fill-rule="evenodd" clip-rule="evenodd" d="M5.15122 5.87078C5.13357 5.87078 5.13357 5.87078 5.11593 5.87078C5.04534 5.85313 5.01004 5.78255 5.02769 5.71196C5.16887 4.93549 5.73357 4.70608 5.76887 4.68843C5.82181 4.67078 5.91004 4.70608 5.92769 4.75902C5.96298 4.8296 5.92769 4.90019 5.8571 4.93549C5.83946 4.93549 5.39828 5.1296 5.27475 5.7649C5.2571 5.81784 5.20416 5.87078 5.15122 5.87078Z" fill="white"/>
<path fill-rule="evenodd" clip-rule="evenodd" d="M6.04978 7.5122C5.99684 7.5122 5.9439 7.47691 5.92625 7.42397C5.9086 7.35338 5.9439 7.28279 6.01449 7.26514L6.73801 7.07103C6.8086 7.05338 6.87919 7.08867 6.89684 7.15926C6.91449 7.22985 6.87919 7.30044 6.8086 7.31808L6.08507 7.5122C6.06743 7.5122 6.06743 7.5122 6.04978 7.5122Z" fill="white"/>
<path fill-rule="evenodd" clip-rule="evenodd" d="M6.26737 8.5239C6.21443 8.5239 6.16149 8.48861 6.14384 8.43567C6.1262 8.36508 6.17914 8.29449 6.23208 8.27685L6.81443 8.11802C6.86737 8.10038 6.95561 8.13567 6.95561 8.20626C6.97325 8.27685 6.93796 8.34743 6.86737 8.36508L6.30267 8.5239C6.30267 8.5239 6.28502 8.5239 6.26737 8.5239Z" fill="white"/>
<path fill-rule="evenodd" clip-rule="evenodd" d="M6.47485 9.52767C6.42191 9.52767 6.36897 9.47473 6.35132 9.42179C6.35132 9.3512 6.38661 9.28061 6.43955 9.26297L6.86308 9.15708C6.93367 9.13944 7.00426 9.17473 7.02191 9.24532C7.03955 9.31591 7.00426 9.3865 6.93367 9.40414L6.51014 9.51003C6.51014 9.52767 6.49249 9.52767 6.47485 9.52767Z" fill="white"/>
<path fill-rule="evenodd" clip-rule="evenodd" d="M6.59546 10.5491C6.52487 10.5491 6.47193 10.5138 6.47193 10.4609C6.43663 10.3903 6.48957 10.3197 6.56016 10.302L6.93075 10.1961C7.00134 10.1785 7.07193 10.2138 7.08957 10.2844C7.10722 10.355 7.05428 10.4256 7.00134 10.4432L6.6131 10.5491H6.59546Z" fill="white"/>
<path fill-rule="evenodd" clip-rule="evenodd" d="M4.64341 8.32612C4.59047 8.32612 4.53752 8.29082 4.51988 8.22023C4.50223 8.16729 4.53752 8.07906 4.60811 8.07906L5.22576 7.90259C5.29635 7.90259 5.36694 7.93788 5.38458 7.99082C5.38458 8.06141 5.34929 8.132 5.29635 8.14965L4.6787 8.30847C4.66105 8.32612 4.66105 8.32612 4.64341 8.32612Z" fill="white"/>
<path fill-rule="evenodd" clip-rule="evenodd" d="M5.11889 9.26407C5.04831 9.26407 4.99536 9.21113 4.99536 9.15819C4.96007 9.0876 5.01301 9.01701 5.0836 8.99936L5.54242 8.87583C5.59536 8.85819 5.6836 8.89348 5.70125 8.96407C5.71889 9.03466 5.6836 9.10525 5.61301 9.12289L5.15419 9.24642C5.13654 9.26407 5.11889 9.26407 5.11889 9.26407Z" fill="white"/>
<path fill-rule="evenodd" clip-rule="evenodd" d="M5.57309 10.1819C5.52015 10.1819 5.46721 10.1466 5.44957 10.0937C5.43192 10.0231 5.46721 9.95249 5.5378 9.93484L5.97898 9.82896C6.04957 9.81131 6.12015 9.84661 6.1378 9.9172C6.15545 9.98778 6.12015 10.0584 6.04957 10.076L5.60839 10.1819C5.59074 10.1819 5.59074 10.1819 5.57309 10.1819Z" fill="white"/>
</g>
<defs>
<clipPath id="clip0_90_3145">
<rect width="15" height="15" fill="white" transform="translate(0 0.387207)"/>
</clipPath>
</defs>
</svg>
